<svg xmlns="http://www.w3.org/2000/svg" viewBox="0 0 512 640" x="0px" y="0px">
  <g>
    <path d="M477.056,101.26,351.926,74.29a8.012,8.012,0,0,0-4.623.378L325.436,83.3,309.062,66.428a8.011,8.011,0,0,0-4.113-2.261L78.752,17.121a23.989,23.989,0,0,0-28.523,18.4L39.282,86.314l15.641,3.372L65.87,38.894a7.992,7.992,0,0,1,9.561-6.122L299.289,79.333l18.38,18.939a8,8,0,0,0,8.679,1.87l24.576-9.7L413.833,104H344a8,8,0,0,0-4.438,1.344L320,118.387l-6.674-4.445c-.078-.053-.158-.1-.238-.153l-12.644-8.442A8,8,0,0,0,296,104H40a24.028,24.028,0,0,0-24,24V288a24.028,24.028,0,0,0,24,24H89.944L70.789,344.248l13.756,8.171,52.864-90.761A11.255,11.255,0,0,1,147.158,256a11.227,11.227,0,0,1,10.364,15.546l-28.907,69.377a8,8,0,0,0,.729,7.515A86.991,86.991,0,0,1,144,396.844v4.667a87.717,87.717,0,0,1-9.213,39.027l-5.942,11.884A7.994,7.994,0,0,0,128,456v24H64V456c0-.167-.005-.333-.016-.5L57.562,352.75a122.3,122.3,0,0,1,.827-23.7l-15.862-2.108a138.353,138.353,0,0,0-.933,26.8L48,456.25V488a8,8,0,0,0,8,8h80a8,8,0,0,0,8-8V457.889l5.1-10.2A103.8,103.8,0,0,0,160,401.511v-4.667a102.9,102.9,0,0,0-15.011-53.619L158,312H296a8,8,0,0,0,4.438-1.344L320,297.615l19.562,13.041A8,8,0,0,0,344,312h11.325l13.011,31.225a102.9,102.9,0,0,0-15.011,53.619v4.667a103.8,103.8,0,0,0,10.9,46.182l5.1,10.2V488a8,8,0,0,0,8,8h80a8,8,0,0,0,8-8V456.25l6.406-102.5A137.369,137.369,0,0,0,467.962,312H472a24.028,24.028,0,0,0,24-24s-.035-161.133-.075-161.719A23.944,23.944,0,0,0,477.056,101.26ZM455.763,352.75,449.341,455.5c-.011.166-.016.332-.016.5v24h-64V456a7.994,7.994,0,0,0-.845-3.578l-5.943-11.884a87.733,87.733,0,0,1-9.212-39.027v-4.667a86.994,86.994,0,0,1,14.656-48.406,8,8,0,0,0,.729-7.515L355.8,271.546A11.227,11.227,0,0,1,366.166,256a11.248,11.248,0,0,1,9.748,5.657l52.866,90.762,13.756-8.171L423.382,312h28.035A121.435,121.435,0,0,1,455.763,352.75ZM480,288a8.009,8.009,0,0,1-8,8H413.968L400,271.557V248H385.438a27.225,27.225,0,0,0-44.4,29.7l7.625,18.3h-2.236l-21.984-14.656a8,8,0,0,0-8.876,0L293.578,296H164.667l7.162-17.188A7.991,7.991,0,0,0,176,280h24a8,8,0,0,0,7.155-4.422L228.944,232H280a8,8,0,0,0,8-8V208a8,8,0,0,0-2.343-5.657l-16-16A8,8,0,0,0,264,184H228.944l-21.789-43.578A8,8,0,0,0,200,136H176a8,8,0,0,0-7.59,10.53L180.9,184h-1.587l-13.656-13.657A8,8,0,0,0,160,168H144a8,8,0,0,0-8,8v48a8,8,0,0,0,8,8h36.9l-8.417,25.251a27.22,27.22,0,0,0-48.965-3.532L112,273.875V264H48v16h60.5l-9.143,16H40a8.009,8.009,0,0,1-8-8V128a8.009,8.009,0,0,1,8-8H293.574l10.864,7.253c.083.056.167.11.253.163l10.874,7.242a8,8,0,0,0,8.873,0L346.422,120H472a7.976,7.976,0,0,1,7.944,6.983c0,.051.008.1.013.151C479.983,127.423,480,288,480,288ZM187.1,152h7.956l16,32h-13.29Zm73.587,48L272,211.313V216H152V184h4.687l13.656,13.657A8,8,0,0,0,176,200Zm-62.921,32h13.29l-16,32H187.1Z"/>
    <rect x="48" y="136" width="64" height="16"/>
    <rect x="48" y="168" width="64" height="16"/>
    <rect x="48" y="200" width="64" height="16"/>
    <rect x="48" y="232" width="64" height="16"/>
    <rect x="448" y="248" width="16" height="32"/>
    <rect x="416" y="248" width="16" height="32"/>
    <rect x="312" y="152" width="16" height="16"/>
    <rect x="312" y="184" width="16" height="16"/>
    <rect x="312" y="216" width="16" height="16"/>
    <rect x="312" y="248" width="16" height="16"/>
    <rect x="352" y="144" width="40" height="16"/>
    <rect x="352" y="176" width="56" height="16"/>
    <rect x="352" y="208" width="40" height="16"/>
    <rect x="432" y="144" width="32" height="16"/>
    <rect x="432" y="176" width="32" height="16"/>
    <rect x="432" y="208" width="32" height="16"/>
  </g>
</svg>